# xmcd CD database file
# Copyright (C) 1993-1996 Ti Kan
#
# Track frame offsets:
#  150
#  19467
#  36827
#  59403
#  76178
#  91713
#  113602
#  138221
#  154713
#  170624
#  193124
#  214729
#  231320
#  253513
#
# Disc length: 3591 seconds
#
# Revision: 5
# Processed by: cddbd v1.5.1PL2 Copyright (c) Steve Scherf et al.
# Submitted via: Advanced CD Ripper Pro 2.0
#
DISCID=b50e050e
DTITLE=Various Artist - Loving You - Disk4
DYEAR=2003
DGENRE=other
TTITLE0=Christopher Cross - Saling
TTITLE1=Toto - I'll Be over You
TTITLE2=Foreigner - I Want To Know What Love Is
TTITLE3=A-Ha - Hunting High And Low
TTITLE4=Gloria Estefan and Miami Sound Machine - Words Get In The Way
TTITLE5=Rick Astley - Cry For Help
TTITLE6=Spandau Ballet - True
TTITLE7=Take That - How Deep Is Your Love
TTITLE8=Bebel Gilberto - So Nice (Summers Samba)
TTITLE9=Sade - Smooth Operator
TTITLE10=Bobby McFerrin - Don't Worry Be Happy
TTITLE11=Backstreet Boys - As Long As You Love Me
TTITLE12=New Radicals - You Get What You Give
TTITLE13=Westlife - World Of Our Own
EXTD=
EXTT0=
EXTT1=
EXTT2=
EXTT3=
EXTT4=
EXTT5=
EXTT6=
EXTT7=
EXTT8=
EXTT9=
EXTT10=
EXTT11=
EXTT12=
EXTT13=
PLAYORDER=
